<svg xmlns="http://www.w3.org/2000/svg" width="103" height="70.36" viewBox="0 0 103 70.36">
  <g id="그룹_219" data-name="그룹 219" transform="translate(3 3)">
    <path id="패스_23" data-name="패스 23" d="M340.78,480.36H282.165a11.994,11.994,0,0,1-9.766-5.031L258,455.144a12,12,0,0,1,0-13.928l14.4-20.185A11.994,11.994,0,0,1,282.165,416H340.78a12,12,0,0,1,12,12v40.37A12,12,0,0,1,340.78,480.36Z" transform="translate(-255.776 -416)" fill="none" stroke="#bbb" stroke-miterlimit="10" stroke-width="6"/>
    <path id="패스_24" data-name="패스 24" d="M4952,1184l26.73,26.73" transform="translate(-4912.5 -1165.185)" fill="none" stroke="#bbb" stroke-linecap="round" stroke-width="6"/>
    <path id="패스_25" data-name="패스 25" d="M4978.73,1184,4952,1210.73" transform="translate(-4912.5 -1165.185)" fill="none" stroke="#bbb" stroke-linecap="round" stroke-width="6"/>
  </g>
</svg>
